<?xml version="1.0" standalone="no"?><!DOCTYPE svg PUBLIC "-//W3C//DTD SVG 1.1//EN" "http://www.w3.org/Graphics/SVG/1.1/DTD/svg11.dtd"><svg t="1623502460002" class="icon" viewBox="0 0 1024 1024" version="1.1" xmlns="http://www.w3.org/2000/svg" p-id="9563" xmlns:xlink="http://www.w3.org/1999/xlink" width="200" height="200"><defs><style type="text/css"></style></defs><path d="M864 128H545.28c-10.88-1.92-22.4 1.28-30.72 9.6L72.96 579.2c-7.68 7.68-10.24 17.92-9.6 27.52-0.64 10.24 1.92 20.48 9.6 28.16l313.6 313.6c7.68 7.68 17.92 10.88 27.52 9.6 10.24 1.28 21.12-1.92 28.8-9.6l441.6-441.6c3.84-3.84 6.4-8.96 8.32-14.08 1.92-3.84 3.2-8.32 3.2-12.8V160c0-17.92-14.08-32-32-32z m-32 332.16L414.72 876.8 144.64 606.72 560 192h272v268.16zM640 448c35.2 0 64-28.8 64-64s-28.8-64-64-64-64 28.8-64 64 28.8 64 64 64z" fill="#333333" p-id="9564"></path></svg>