<?xml version="1.0" standalone="no"?><!DOCTYPE svg PUBLIC "-//W3C//DTD SVG 1.1//EN"
        "http://www.w3.org/Graphics/SVG/1.1/DTD/svg11.dtd">
<svg t="1622463942903" class="icon" viewBox="0 0 1024 1024" version="1.1" xmlns="http://www.w3.org/2000/svg" p-id="5814"
     xmlns:xlink="http://www.w3.org/1999/xlink" width="200" height="200">
    <defs>
        <style type="text/css"></style>
    </defs>
    <path d="M794.624 574.122667c0-17.066667-5.973333-31.914667-18.090667-44.714667L425.642667 179.029333c-12.458667-12.458667-29.184-23.04-50.005334-31.744-20.992-8.704-40.106667-12.970667-57.514666-12.970666H113.834667c-17.066667 0-31.744 6.144-44.202667 18.602666-12.458667 12.458667-18.602667 27.136-18.602667 44.202667v204.117333c0 17.408 4.266667 36.522667 12.970667 57.344s19.285333 37.546667 31.573333 49.493334l350.890667 351.402666c12.117333 12.117333 26.794667 18.090667 44.202667 18.090667 17.066667 0 31.914667-5.973333 44.714666-18.090667L776.533333 618.325333c12.117333-12.117333 18.090667-26.794667 18.090667-44.202666zM252.586667 335.872c-12.288 12.288-27.136 18.432-44.373334 18.432-17.408 0-32.085333-6.144-44.373333-18.432-12.288-12.288-18.432-27.136-18.432-44.373333s6.144-32.085333 18.432-44.373334c12.288-12.288 27.136-18.432 44.373333-18.432 17.408 0 32.085333 6.144 44.373334 18.432 12.288 12.288 18.432 27.136 18.432 44.373334s-6.144 32.085333-18.432 44.373333z"
          p-id="5815"></path>
    <path d="M964.949333 529.578667L614.058667 179.029333c-12.458667-12.458667-29.184-23.04-50.005334-31.744-20.992-8.704-40.106667-12.970667-57.344-12.970666h-109.909333c17.408 0 36.522667 4.266667 57.344 12.970666 20.992 8.704 37.717333 19.285333 50.005333 31.744L855.04 529.578667c12.117333 12.8 18.090667 27.648 18.090667 44.714666 0 17.408-6.144 32.085333-18.090667 44.202667L624.298667 849.066667c9.898667 10.069333 18.432 17.578667 25.941333 22.016 7.509333 4.608 17.237333 6.826667 29.013333 6.826666 17.066667 0 31.914667-5.973333 44.714667-18.090666l240.981333-241.493334c12.117333-12.117333 18.090667-26.794667 18.090667-44.202666 0.170667-16.896-5.973333-31.914667-18.090667-44.544z"
          p-id="5816"></path>
</svg>