<?xml version="1.0" standalone="no"?><!DOCTYPE svg PUBLIC "-//W3C//DTD SVG 1.1//EN" "http://www.w3.org/Graphics/SVG/1.1/DTD/svg11.dtd"><svg t="1623307119846" class="icon" viewBox="0 0 1185 1024" version="1.1" xmlns="http://www.w3.org/2000/svg" p-id="16458" xmlns:xlink="http://www.w3.org/1999/xlink" width="231.4453125" height="200"><defs><style type="text/css"></style></defs><path d="M1183.447579 632.427789c0-94.693053-128.808421-168.852211-286.639158-168.85221-10.509474 0-23.120842 0.377263-33.306947 1.024V188.308211c1.455158-7.006316 0.916211-14.093474 0.91621-21.342316 0-93.318737-119.754105-166.4-277.557895-166.4-157.830737 0-281.465263 73.081263-281.465263 166.4 0 7.248842 0.997053 14.362947 2.479158 21.342316V264.084211c-8.892632-0.485053-17.946947-0.808421-27.109052-0.808422C122.933895 263.275789 1.616842 336.410947 1.616842 429.702737c0 7.275789-1.293474 14.362947 0.188632 21.369263v386.964211h1.886315c4.958316 88.198737 124.685474 156.564211 277.072843 156.56421 152.252632 0 279.632842-68.257684 284.752842-156.56421h1.886315v-16.141474c9.027368 0.538947 10.159158 1.374316 19.429053 1.374316 10.536421 0 20.830316-0.431158 30.989474-1.104842v4.554105h2.074947l-0.592842 10.536421c0 90.947368 123.688421 170.172632 281.626947 170.172631 157.965474 0 281.653895-72.326737 281.653895-164.837052l-0.296421-10.509474h1.778526v-177.933474c1.482105-7.114105-0.619789-14.309053-0.619789-21.692631z m-282.516211-115.173052c138.859789 0 235.600842 60.685474 235.600843 115.173052 0 54.460632-96.741053 115.146105-235.600843 115.146106-138.832842 0-235.600842-60.685474-235.600842-115.146106 0-54.487579 96.768-115.173053 235.600842-115.173052z m238.106948 209.569684v29.130105c-13.285053 58.341053-118.810947 107.088842-238.106948 107.088842-119.215158 0-224.741053-48.720842-238.106947-106.981052v-29.237895c50.741895 45.190737 137.566316 74.428632 238.106947 74.428632 100.567579 0 187.365053-29.237895 238.106948-74.428632z m-552.205474-234.927158c-9.162105 0-10.482526-0.377263-19.402105-0.970105v-39.882105c0.916211-4.311579 1.509053-8.704 1.94021-13.123369 8.272842 0.485053 8.946526 0.808421 17.461895 0.808421 100.001684 0 182.029474-29.534316 230.777263-74.752v22.420211c-13.069474 57.451789-113.232842 105.498947-230.777263 105.498947z m234.630737-22.339368c-4.042105 0.673684-8.165053 1.239579-12.180211 1.994105 4.149895-3.233684 8.488421-6.413474 12.180211-9.835789v7.841684z m-234.630737-416.067369c136.811789 0 228.298105 59.796211 228.298105 113.448421 0 53.679158-91.486316 113.475368-228.298105 113.475369s-232.151579-59.796211-232.151579-113.448421c0-53.679158 95.339789-113.502316 232.151579-113.502316z m-234.603789 206.470737c4.230737 3.772632 9.081263 7.275789 13.850947 10.85979-4.527158-0.835368-9.242947-1.428211-13.850947-2.128842v-8.730948z m-71.464421 56.212211c136.811789 0 236.005053 59.823158 236.005052 113.502315 0 53.679158-99.193263 113.448421-236.005052 113.448422-136.811789 0-232.151579-59.769263-232.151579-113.448422s95.339789-113.502316 232.151579-113.502315z m-234.630737 206.524631c50.014316 44.517053 135.545263 73.350737 234.630737 73.350737 99.058526 0 188.469895-28.833684 238.48421-73.350737v28.698948c-13.096421 57.478737-120.939789 105.525895-238.48421 105.525894-117.490526 0-221.453474-48.020211-234.630737-105.445052v-28.77979z m0 104.070737c48.774737 45.163789 134.629053 74.644211 234.630737 74.644211 99.974737 0 189.709474-29.480421 238.48421-74.698106v22.366316c-13.096421 57.478737-120.939789 105.552842-238.48421 105.552842-117.490526 0-221.453474-48.020211-234.630737-105.445052v-22.420211z m0 97.711158c48.774737 45.163789 134.629053 74.671158 234.630737 74.671158 99.974737 0 189.709474-29.507368 238.48421-74.725053v22.393263c-13.096421 57.478737-120.939789 105.525895-238.48421 105.525895-117.490526 0-221.453474-47.993263-234.630737-105.445052v-22.420211z m234.630737 225.549474c-121.963789 0-229.079579-51.738947-235.466106-112.047158h0.835369v-15.791158c48.774737 45.136842 134.629053 74.644211 234.630737 74.64421 99.974737 0 189.709474-29.507368 238.48421-74.698105v15.845053h0.808421c-6.386526 60.308211-117.355789 112.074105-239.292631 112.074105z m282.354526-557.029053c-9.296842-25.276632-35.678316-48.181895-61.601684-67.503158 26.866526 4.904421 55.376842 7.814737 85.315368 7.814737 99.085474 0 180.789895-28.833684 230.777263-73.350737v28.698948c-13.069474 57.478737-113.232842 105.525895-230.777263 105.525894-10.617263 0-13.392842-0.458105-23.713684-1.185684z m54.703158 384.458105c-10.186105 0.754526-20.48 1.266526-30.989474 1.266527-9.162105 0-10.482526-0.377263-19.402105-0.970106v-46.888421c8.892632 0.592842 10.213053 0.970105 19.402105 0.970106 10.563368 0 20.830316-0.538947 30.989474-1.266527v46.888421z m0-91.432421a411.486316 411.486316 0 0 1-30.989474 1.293474c-9.162105 0-10.482526-0.404211-19.402105-0.970105v-53.194106c8.892632 0.565895 10.213053 0.970105 19.402105 0.970106 9.808842 0 19.321263-0.458105 28.752842-1.077895 0.242526 6.197895 1.024 12.288 2.263579 18.270316v34.70821z m6.656-98.142316c-12.341895 1.077895-24.872421 1.724632-37.645474 1.724632-9.162105 0-10.482526-0.377263-19.402105-0.970105v-53.167158c8.892632 0.538947 10.213053 0.943158 19.402105 0.943158 30.181053 0 58.88-2.964211 85.881263-7.976421-22.339368 17.354105-38.858105 37.456842-48.235789 59.445894z m276.48 374.325895c-126.922105 0-238.322526-55.161263-239.562105-118.325895l0.40421-11.802947h0.646737c49.421474 46.026105 136.730947 76.153263 238.48421 76.153263 101.726316 0 189.008842-30.100211 238.430316-76.153263h0.754527l0.377263 10.698105c0 63.622737-111.939368 119.430737-239.562106 119.430737z" p-id="16459"></path></svg>