<?xml version="1.0" standalone="no"?><!DOCTYPE svg PUBLIC "-//W3C//DTD SVG 1.1//EN" "http://www.w3.org/Graphics/SVG/1.1/DTD/svg11.dtd"><svg t="1622472555279" class="icon" viewBox="0 0 1024 1024" version="1.1" xmlns="http://www.w3.org/2000/svg" p-id="5311" xmlns:xlink="http://www.w3.org/1999/xlink" width="200" height="200"><defs><style type="text/css"></style></defs><path d="M1024 38.868v-0.776q0-1.07-0.123-2.129v-0.43c-0.086-0.887-0.21-1.76-0.345-2.622l-0.061-0.37c-0.16-0.886-0.333-1.76-0.542-2.621q-0.357-1.428-0.812-2.806a39.126 39.126 0 0 0-2.228-5.39l-0.086-0.173a39.385 39.385 0 0 0-2.818-4.69l-0.37-0.492a37.245 37.245 0 0 0-1.563-2.043l-0.098-0.11a27.78 27.78 0 0 0-1.588-1.785l-0.48-0.493c-0.578-0.59-1.23-1.23-1.784-1.735l-0.185-0.16c-0.59-0.53-1.23-1.034-1.822-1.526l-0.418-0.332a39.385 39.385 0 0 0-4.443-2.967l-0.222-0.123a39.188 39.188 0 0 0-5.021-2.387h-0.111a39.065 39.065 0 0 0-5.317-1.637l-0.332-0.111a39.385 39.385 0 0 0-5.342-0.812h-0.603C986.4 0 985.514 0 984.616 0H748.307a39.385 39.385 0 0 0 0 78.77h141.23L630.154 338.153 421.698 129.686a39.385 39.385 0 0 0-55.692 0L11.545 484.148a39.385 39.385 0 0 0 55.692 55.704l326.61-326.621 208.455 208.467a39.385 39.385 0 0 0 55.704 0l287.225-287.224v141.218a39.385 39.385 0 0 0 78.769 0V38.868zM118.154 708.923a39.385 39.385 0 0 0-39.385 39.385v236.307a39.385 39.385 0 0 0 78.77 0V748.308a39.385 39.385 0 0 0-39.385-39.385zM393.846 512a39.385 39.385 0 0 0-39.384 39.385v433.23a39.385 39.385 0 0 0 78.769 0v-433.23A39.385 39.385 0 0 0 393.846 512z m275.692 157.538a39.385 39.385 0 0 0-39.384 39.385v275.692a39.385 39.385 0 0 0 78.77 0V708.923a39.385 39.385 0 0 0-39.386-39.385z m275.693-196.923A39.385 39.385 0 0 0 905.846 512v472.615a39.385 39.385 0 0 0 78.77 0V512a39.385 39.385 0 0 0-39.385-39.385z" p-id="5312"></path></svg>