<?xml version="1.0" standalone="no"?><!DOCTYPE svg PUBLIC "-//W3C//DTD SVG 1.1//EN" "http://www.w3.org/Graphics/SVG/1.1/DTD/svg11.dtd"><svg t="1623308775550" class="icon" viewBox="0 0 1024 1024" version="1.1" xmlns="http://www.w3.org/2000/svg" p-id="21613" xmlns:xlink="http://www.w3.org/1999/xlink" width="200" height="200"><defs><style type="text/css"></style></defs><path d="M916.70082 810.931571H447.827883a21.317042 21.317042 0 1 0 0 42.634085h468.872937a21.317042 21.317042 0 1 0 0-42.634085z m0-170.50234H533.096052a21.317042 21.317042 0 0 0 0 42.634085h383.604768a21.317042 21.317042 0 0 0 0-42.634085z m-319.687639-149.083303a21.385039 21.385039 0 0 0 21.317042 21.317042h298.370597a21.317042 21.317042 0 0 0 0-42.634085H618.432219a21.317042 21.317042 0 0 0-21.419038 21.317043z m52.017663-315.607822a64.971081 64.971081 0 0 0-29.340682-37.670308L547.035426 94.651748c-30.190644-17.985192-68.710913-9.111591-85.846143 19.685116l-40.492182 67.996945-303.878349 509.909094a20.875062 20.875062 0 0 0-2.821873 8.091637l-28.456722 213.374414a21.351041 21.351041 0 0 0 10.199542 21.147051 21.895016 21.895016 0 0 0 10.91351 2.991865 21.181049 21.181049 0 0 0 12.545436-4.079817l174.072181-126.576314a21.555032 21.555032 0 0 0 5.813739-6.323715l344.404528-577.974037a59.259338 59.259338 0 0 0 5.541751-47.155881z m-384.182741 599.529068l-130.486139 94.82174 21.317043-159.792822 290.686941-487.878083 109.067101 64.937082zM606.804741 201.134965l-29.578671 49.705767-109.033102-64.971082 29.578671-49.705767c5.031774-8.533617 17.645207-10.641522 27.436768-4.861781l72.824728 43.416049a22.642983 22.642983 0 0 1 10.199542 12.953418 16.999236 16.999236 0 0 1-1.427936 13.463396z" fill="#333333" p-id="21614"></path></svg>