<?xml version="1.0" standalone="no"?><!DOCTYPE svg PUBLIC "-//W3C//DTD SVG 1.1//EN" "http://www.w3.org/Graphics/SVG/1.1/DTD/svg11.dtd"><svg t="1625126164864" class="icon" viewBox="0 0 1024 1024" version="1.1" xmlns="http://www.w3.org/2000/svg" p-id="12344" xmlns:xlink="http://www.w3.org/1999/xlink" width="200" height="200"><defs><style type="text/css"></style></defs><path d="M743.405 393.737c9.642-26.346 15.183-54.64 15.183-84.288 0-135.626-110.306-245.931-245.93-245.931-135.585 0-245.91 110.305-245.91 245.93 0 27.74 4.822 54.332 13.357 79.242-25.894 30.264-41.693 69.104-41.693 111.619v284.299c0 96.148 79.775 174.383 177.811 174.383h182.899c99.963 0 184.416-79.856 184.416-174.383v-284.3c-0.001-39.847-15.267-76.86-40.133-106.571z m-241.93 175.512l-15.367-15.389c8.739 0.944 17.583 1.497 26.548 1.497 1.766 0 3.448-0.225 5.171-0.244l-16.352 14.136z m11.181-450.475c105.135 0 190.676 85.54 190.676 190.676 0 50.023-19.512 95.49-51.172 129.55l-33.014 28.521c-30.428 20.56-67.074 32.583-106.49 32.583-105.114 0-190.654-85.54-190.654-190.654 0.001-105.137 85.541-190.676 190.654-190.676zM333.452 477.327c1.292 2.504 2.872 4.924 4.965 7.038l121.14 121.118L291.163 751.04V500.31c0-20.847 5.56-40.4 15.163-57.554 8.001 12.351 17.112 23.862 27.125 34.572z m397.313 307.28c0 65.926-60.282 121.632-131.644 121.632H416.222c-57.123 0-105.3-37.466-120.195-88.412 2.625-1.108 5.211-2.442 7.468-4.412L654.602 509.91a245.924 245.924 0 0 0 35.66-30.817l2.298-1.97c2.133-1.867 3.816-4.022 5.231-6.299 6.71-7.695 13.112-15.654 18.856-24.15 8.946 16.291 14.118 34.512 14.118 53.635v284.299z" p-id="12345" fill="#333333"></path><path d="M415.217 280.457c1.58 0.43 3.16 0.636 4.719 0.636 7.694 0 14.773-5.088 16.927-12.885l15.513-55.665c2.584-9.336-2.874-19.04-12.23-21.647-9.397-2.544-19.061 2.853-21.667 12.228l-15.491 55.685c-2.606 9.336 2.872 19.041 12.23 21.648z m85.006 0c1.56 0.43 3.16 0.636 4.719 0.636 7.695 0 14.773-5.108 16.927-12.885l15.492-55.665c2.585-9.356-2.893-19.04-12.228-21.647-9.358-2.544-19.041 2.872-21.667 12.228l-15.471 55.685c-2.607 9.357 2.872 19.041 12.228 21.648z m84.987 0c1.58 0.43 3.159 0.636 4.718 0.636 7.715 0 14.774-5.108 16.928-12.885l15.492-55.665c2.585-9.356-2.874-19.04-12.23-21.647-9.397-2.544-19.04 2.872-21.666 12.228l-15.47 55.685c-2.607 9.357 2.87 19.041 12.228 21.648z m-170.711 120.79c16.168 0 29.3-13.112 29.3-29.3 0-16.188-13.132-29.3-29.3-29.3-16.21 0-29.32 13.11-29.32 29.3 0 16.188 13.11 29.3 29.32 29.3z m167.038-29.3c0 16.188 13.11 29.3 29.319 29.3 16.17 0 29.301-13.112 29.301-29.3 0-16.188-13.132-29.3-29.301-29.3-16.21 0-29.319 13.112-29.319 29.3z" p-id="12346" fill="#333333"></path></svg>