<?xml version="1.0" standalone="no"?><!DOCTYPE svg PUBLIC "-//W3C//DTD SVG 1.1//EN" "http://www.w3.org/Graphics/SVG/1.1/DTD/svg11.dtd"><svg t="1625126478997" class="icon" viewBox="0 0 1024 1024" version="1.1" xmlns="http://www.w3.org/2000/svg" p-id="15529" xmlns:xlink="http://www.w3.org/1999/xlink" width="200" height="200"><defs><style type="text/css"></style></defs><path d="M939.991 312.387L774.758 147.159a59.459 59.459 0 0 0-46.786-17.27 57.318 57.318 0 0 0-4.803-0.215h-88.033l-6.17 3.436c-32.609 18.14-74.224 28.129-117.17 28.129-42.947 0-84.558-9.99-117.167-28.13l-6.175-3.435h-88.033a59.986 59.986 0 0 0-53.053 31.688L84.045 324.69C72.77 335.97 66.56 350.956 66.56 366.9s6.21 30.934 17.485 42.208L203.377 528.44a59.192 59.192 0 0 0 36.787 17.219v288.4c0 33.228 27.033 60.267 60.262 60.267H723.17c33.23 0 60.268-27.039 60.268-60.268V533.402a59.203 59.203 0 0 0 37.217-17.27L940.001 396.8c23.255-23.27 23.255-61.143-0.01-84.413z m-38.523 45.895L782.131 477.62a5.053 5.053 0 0 1-3.65 1.51 5.158 5.158 0 0 1-3.595-1.423l-45.936-43.361v399.718c0 3.2-2.596 5.791-5.791 5.791H300.421a5.786 5.786 0 0 1-5.785-5.79v-385.5l-45.579 41.502a5.154 5.154 0 0 1-3.522 1.362 5.064 5.064 0 0 1-3.64-1.505L122.562 370.586c-1.265-1.26-1.526-2.699-1.526-3.687s0.266-2.427 1.526-3.691l164.874-164.875 5.268-4.725 2.355-5.832a5.796 5.796 0 0 1 5.366-3.63h74.122c39.865 20.674 87.143 31.56 137.247 31.56 50.11 0 97.388-10.886 137.257-31.56h74.081c0.297 0.01 0.59 0.056 0.87 0.097l3.897 0.558 3.886-0.563c1.24-0.174 2.883-0.138 4.455 1.434l165.232 165.227a5.222 5.222 0 0 1-0.005 7.383z" fill="#333333" p-id="15530"></path></svg>