<?xml version="1.0" standalone="no"?><!DOCTYPE svg PUBLIC "-//W3C//DTD SVG 1.1//EN" "http://www.w3.org/Graphics/SVG/1.1/DTD/svg11.dtd"><svg t="1625193757281" class="icon" viewBox="0 0 1024 1024" version="1.1" xmlns="http://www.w3.org/2000/svg" p-id="7919" xmlns:xlink="http://www.w3.org/1999/xlink" width="200" height="200"><defs><style type="text/css"></style></defs><path d="M512.007163 295.866475c-16.954137 0-30.699186 13.745049-30.699186 30.699186l0 207.985962c0 16.954137 13.745049 30.699186 30.699186 30.699186l172.176384 0c16.954137 0 30.699186-13.745049 30.699186-30.699186s-13.745049-30.699186-30.699186-30.699186L542.706349 503.852436 542.706349 326.56566C542.706349 309.611523 528.9613 295.866475 512.007163 295.866475z" p-id="7920" fill="#333333"></path><path d="M558.079478 846.456375c-3.098571 0-6.087649 0.462534-8.908904 1.313925-13.746072 1.833765-27.761274 2.805906-42.00058 2.805906-174.256766 0-316.024583-141.767817-316.024583-316.024583 0-174.255743 141.767817-316.02356 316.024583-316.02356 174.256766 0 316.024583 141.767817 316.024583 316.02356 0 3.167133-0.056282 6.321986-0.154519 9.465582 0.052189 0.033769 0.10847 0.059352 0.160659 0.092098-0.11461 1.079588-0.176009 2.175549-0.176009 3.285836 0 17.002232 13.782911 30.78412 30.78412 30.78412s30.78412-13.782911 30.78412-30.78412c0-1.072425-0.055259-2.131547-0.162706-3.175319 0.094144-3.216251 0.162706-6.436596 0.162706-9.668197 0-50.938136-9.983375-100.368942-29.67281-146.919141-19.009959-44.946678-46.219671-85.306898-80.871889-119.958092-34.651194-34.652218-75.012438-61.860906-119.959116-80.871889-37.138852-15.708773-76.111468-25.231661-116.219955-28.442796l0-19.013029c0-16.954137-13.745049-30.699186-30.699186-30.699186s-30.699186 13.745049-30.699186 30.699186l0 19.013029c-40.108486 3.211135-79.081103 12.735046-116.219955 28.442796-44.946678 19.010983-85.306898 46.219671-119.959116 80.871889-34.652218 34.651194-61.860906 75.011414-80.871889 119.958092-19.689435 46.550199-29.67281 95.981005-29.67281 146.919141 0 50.938136 9.983375 100.368942 29.67281 146.919141 19.010983 44.946678 46.219671 85.306898 80.871889 119.959116 34.652218 34.652218 75.011414 61.86193 119.959116 80.871889 46.550199 19.689435 95.981005 29.67281 146.919141 29.67281 18.061354 0 38.363749-1.223874 56.08025-4.38282-0.001023-0.002047-0.002047-0.004093-0.004093-0.007163 14.540158-2.459005 25.617447-15.103999 25.617447-30.344099C588.863598 860.239286 575.081711 846.456375 558.079478 846.456375z" p-id="7921" fill="#333333"></path><path d="M865.101014 801.424762 798.367123 801.424762l0-19.715017 66.734914 0c16.954137 0 30.699186-13.745049 30.699186-30.699186s-13.745049-30.699186-30.699186-30.699186l-26.368554 0 40.956807-39.289841c12.235672-11.737322 12.639878-31.17093 0.902556-43.405579-11.737322-12.236696-31.171953-12.639878-43.405579-0.902556l-69.51933 66.688865-69.51933-66.688865c-12.234649-11.738345-31.667234-11.333116-43.405579 0.902556-11.737322 12.234649-11.333116 31.668257 0.902556 43.405579l40.956807 39.289841-26.368554 0c-16.954137 0-30.699186 13.745049-30.699186 30.699186s13.745049 30.699186 30.699186 30.699186l66.734914 0 0 19.715017-66.734914 0c-16.954137 0-30.699186 13.745049-30.699186 30.699186s13.745049 30.699186 30.699186 30.699186l66.734914 0 0 20.466124c0 16.954137 13.745049 30.699186 30.699186 30.699186s30.699186-13.745049 30.699186-30.699186l0-20.466124 66.734914 0c16.954137 0 30.699186-13.745049 30.699186-30.699186S882.056174 801.424762 865.101014 801.424762z" p-id="7922" fill="#333333"></path></svg>