<?xml version="1.0" standalone="no"?><!DOCTYPE svg PUBLIC "-//W3C//DTD SVG 1.1//EN" "http://www.w3.org/Graphics/SVG/1.1/DTD/svg11.dtd"><svg t="1625125703484" class="icon" viewBox="0 0 1024 1024" version="1.1" xmlns="http://www.w3.org/2000/svg" p-id="7773" xmlns:xlink="http://www.w3.org/1999/xlink" width="200" height="200"><defs><style type="text/css"></style></defs><path d="M760.6 482.8c2.2 14.5 14.7 24.8 28.8 24.8 1.5 0 3-0.1 4.5-0.3 16-2.5 26.9-17.4 24.4-33.3C779.5 221.5 553.2 209.7 551 209.6c-15.7-0.8-29.7 11.9-30.3 28-0.6 16.1 11.9 29.7 28 30.4 1.8 0.1 180.3 9.5 211.9 214.8z m65.2-278.6C626.9 5.5 445.4 75.2 437.8 78.3c-15 6-22.2 23-16.2 38s23 22.2 38 16.2c1.5-0.6 153.1-58.7 324.9 113C942.8 403.7 896.3 564.4 894.3 571c-4.8 15.4 3.7 31.8 19.1 36.6 2.9 0.9 5.9 1.3 8.7 1.3 12.4 0 24-8 27.9-20.5 2.6-8 60-200.1-124.2-384.2z m-68.4 688.1c-2.8 2.8-12 9.3-36.7 9.3-80.3 0-234.2-67.5-382.3-215.6C143.9 491.5 99.7 299.5 132.2 267c21-21 64.7-64.7 105.9-64.7 22.8 0 44.5 13.1 66.2 40.2 62.5 77.8 35.4 104.5-9.4 148.8l-8.3 8.3c-11.2 11.2-17.2 26-17.2 42.8 0 26.8 13 75.5 125.1 187.5C506.7 742.1 555.3 755 582.1 755c16.7 0 31.5-5.9 42.8-17.1l8.2-8.3c24.4-24.7 45.5-46.1 72.1-46.1 20.6 0 46.5 12.3 76.7 36.6 25.8 20.7 38.9 41.3 40 63 2.4 42.4-42.8 87.5-64.5 109.2z m61.1-217.7c-41.5-33.3-78.6-49.5-113.3-49.5-51.1 0-84.3 33.7-113.7 63.5l-9.4 8c-9 0-46-7.8-146.3-108-117-116.9-108-147.7-108-147.7l8.1-8c46.2-45.6 109.4-108 13.9-226.9-33-41.2-70.6-62-111.7-62-65.5 0-118.7 53.2-147.3 81.8C6.3 310.3 130 560.3 297 727.4c160.7 160.7 328.6 232.7 423.6 232.7 34.3 0 60.5-8.9 78.1-26.4C826.4 906 884 848.4 880.3 780c-2.1-38.7-22.9-74.1-61.8-105.4z" p-id="7774" fill="#333333"></path></svg>