<?xml version="1.0" standalone="no"?><!DOCTYPE svg PUBLIC "-//W3C//DTD SVG 1.1//EN" "http://www.w3.org/Graphics/SVG/1.1/DTD/svg11.dtd"><svg t="1625126534471" class="icon" viewBox="0 0 1024 1024" version="1.1" xmlns="http://www.w3.org/2000/svg" p-id="16483" xmlns:xlink="http://www.w3.org/1999/xlink" width="200" height="200"><defs><style type="text/css"></style></defs><path d="M841.9 149.1H569.8l43.3 254.1h185.4l43.4-254.1z m-598.5 1.4v252.9h112.4v-69.9c0-90.9-35.4-150-110.1-182l-2.3-1z m502.7 322.3h-80.4L631 888.9h149.8l-34.7-416.1z m-329.2 0H185.8v416.1H417V472.8z m425-393c4.3 0 8.6 0.4 12.8 1.2 36.3 6.8 60.6 40.8 56 76.9l-0.6 4L866.8 416c-5.1 27.1-25.5 48-51.3 54.5l34.4 412.6c3.2 38.2-25.2 71.7-63.4 74.9-1.9 0.2-3.8 0.2-5.8 0.2H631c-38.3 0-69.3-31-69.3-69.3 0-1.9 0.1-3.8 0.2-5.8l34.4-412.6c-24.5-6.1-44.1-25.3-50.4-50.4l-0.9-4.1-43.3-254.1c-0.8-4.2-1.2-8.5-1.2-12.8 0-36.9 28.9-67.1 65.3-69.2l4.1-0.1h272zM217.1 69.3c134.1 33.2 205.4 121.2 208 256.5l0.1 7.7V404c34.4 4.1 61 33.4 61 68.9V889c0 38.3-31 69.3-69.3 69.3H185.8c-38.3 0-69.3-31-69.3-69.3V472.8c0-34.3 24.9-62.8 57.7-68.4V102.9c-0.1-22.5 21.1-39.1 42.9-33.6z" p-id="16484"></path></svg>