<?xml version="1.0" standalone="no"?><!DOCTYPE svg PUBLIC "-//W3C//DTD SVG 1.1//EN" "http://www.w3.org/Graphics/SVG/1.1/DTD/svg11.dtd"><svg t="1625126756609" class="icon" viewBox="0 0 1024 1024" version="1.1" xmlns="http://www.w3.org/2000/svg" p-id="17292" xmlns:xlink="http://www.w3.org/1999/xlink" width="200" height="200"><defs><style type="text/css"></style></defs><path d="M98.991787 921.465173c0-0.141653 227.52768-0.069973 682.525013 0.13312-0.134827 0-0.07168-227.531093 0.13312-682.528426 0 0.134827-227.529387 0.06656-682.52672-0.129707 0.131413 0 0.06656 227.529387-0.131413 682.525013zM30.72 239.069867c0-37.679787 31.127893-68.399787 68.4032-68.399787h682.3936c37.679787 0 68.401493 31.126187 68.401493 68.399787v682.395306c0 37.679787-31.133013 68.401493-68.401493 68.401494H99.1232c-37.69856-0.186027-68.217173-30.702933-68.4032-68.401494V239.069867z m136.533333-137.212587C167.66464 64.377173 198.654293 34.133333 235.656533 34.133333h682.395307C955.731627 34.133333 986.453333 65.262933 986.453333 102.536533v682.3936c0 37.137067-30.103893 67.447467-66.694826 68.401494V101.71904H167.253333v0.13824z m0 0" p-id="17293"></path></svg>