<?xml version="1.0" standalone="no"?><!DOCTYPE svg PUBLIC "-//W3C//DTD SVG 1.1//EN" "http://www.w3.org/Graphics/SVG/1.1/DTD/svg11.dtd"><svg t="1623502130143" class="icon" viewBox="0 0 1024 1024" version="1.1" xmlns="http://www.w3.org/2000/svg" p-id="1271" xmlns:xlink="http://www.w3.org/1999/xlink" width="200" height="200"><defs><style type="text/css"></style></defs><path d="M204.38298416 204.16282844v615.67434312c0 24.17000771 19.55523491 43.72524261 43.68121147 43.72524261h527.87160874a43.76927376 43.76927376 0 0 0 43.68121147-43.72524261V204.16282844a43.68198396 43.68198396 0 0 0-43.68121147-43.72524261h-527.87160874a43.76927376 43.76927376 0 0 0-43.68121147 43.72524261z m-43.94617079 0C160.43758585 155.73552322 199.76898384 116.4921875 248.06496811 116.4921875h527.87160874C824.31907844 116.4921875 863.56164169 155.73552322 863.56164169 204.16282844v615.67434312A87.71467209 87.71467209 0 0 1 775.93580437 907.5078125h-527.87160874A87.62660979 87.62660979 0 0 1 160.43835831 819.83717156V204.16282844zM336.21917915 314.24609375c0 11.77717209 9.84443664 21.97231293 21.9730854 21.97231293H665.80773543c11.86523438 0 21.9730854-9.84366416 21.97308542-21.97231293 0-11.77717209-9.84443664-21.97231293-21.97308542-21.97231293H358.19226457c-11.86523438 0-21.9730854 9.84366416-21.97308542 21.97231293z m0 175.78159333c0 11.77717209 9.84443664 21.97231293 21.9730854 21.97231292H665.80773543c11.86523438 0 21.9730854-9.84366416 21.97308542-21.97231292 0-11.77794457-9.84443664-21.9730854-21.97308542-21.97308542H358.19226457c-11.86523438 0-21.9730854 9.84366416-21.97308542 21.97308542z m0 175.78082083c0 11.77717209 9.84443664 21.9730854 21.9730854 21.97308542H665.80773543c11.86523438 0 21.9730854-9.84443664 21.97308542-21.97308542 0-11.77717209-9.84443664-21.97231293-21.97308542-21.97231292H358.19226457c-11.86523438 0-21.9730854 9.84366416-21.97308542 21.97231292z" fill="#333333" p-id="1272"></path></svg>