<?xml version="1.0" standalone="no"?><!DOCTYPE svg PUBLIC "-//W3C//DTD SVG 1.1//EN" "http://www.w3.org/Graphics/SVG/1.1/DTD/svg11.dtd"><svg t="1623304999843" class="icon" viewBox="0 0 1024 1024" version="1.1" xmlns="http://www.w3.org/2000/svg" p-id="2542" xmlns:xlink="http://www.w3.org/1999/xlink" width="200" height="200"><defs><style type="text/css"></style></defs><path d="M364 873.1c9.9 4.6 14.5 15.2 11.4 25.2-3 7.6-10.7 12.2-18.3 12.2-3.1 0-5.3-0.8-7.6-1.5C186.3 842.6 81.1 685.5 81.1 509.3c0-157.8 86.2-302.7 224.2-378.2 9.2-5.3 20.6-1.5 25.9 7.6 5.3 9.2 1.5 20.6-7.6 25.9C197.8 233.3 119.2 366 119.2 509.3c0 160.2 96.1 302.8 244.8 363.8zM605.8 324c0 39.7-25.2 73.2-58.7 82.4V886c0 37.4-23.6 65.6-59.5 72.4-2.3 0.8-5.3 1.5-8.4 1.5h-10.6c-3 0-6.1 0-8.4-1.5-35.8-6.9-59.5-35.1-59.5-72.4V406.4c-33.5-9.1-58.7-42.7-58.7-82.4V144.8c0-44.2 33.6-80.8 74.7-80.8H531c41.2 0 74.7 35.8 74.7 80.8V324h0.1z m-78.6 46.6c22.1 0 39.6-20.6 39.6-46.5h-1.5V144.8c0-20.6-12.2-38.1-29-41.9v128.9c0 10.7-8.4 19.1-19.1 19.1-10.7 0-19.1-8.4-19.1-19.1V102.1h-51.9v129.6c0 10.7-8.4 19.1-19.1 19.1-10.7 0-19.1-8.4-19.1-19.1v-128c-16 4.6-27.5 21.4-27.5 41.2V324c0 25.9 17.5 46.5 39.7 46.5h19.1V886c0 27.5 21.4 33.6 34.3 35.1 13.7-0.8 34.3-6.9 34.3-35.1V370.6h19.3zM367.8 731.2c-75.5-49.6-120.5-131.9-120.5-221.9 0-70.9 27.5-137.3 77-186.8 7.6-7.6 7.6-19.8 0-27.5-7.6-7.6-19.8-7.6-27.5 0-57.2 57.2-88.5 133.4-88.5 214.3 0 102.9 51.9 198.3 138 254.7 3.1 2.3 6.9 3.1 10.7 3.1 6.1 0 12.2-3.1 16-9.2 6.3-8.4 4-20.6-5.2-26.7zM740 64c54.9 0 99.1 44.2 99.1 98.4v732c0 32.8-26.7 59.5-59.5 59.5s-59.5-26.7-59.5-59.5V667.9c-45-9.1-79.3-48.8-79.3-96.8v-408c0-54.9 45-99.1 99.2-99.1z m60.2 830.4h0.8v-732c0-33.5-26.7-60.2-60.2-60.2-33.6 0-60.2 27.4-60.2 60.2v408c0 33.6 27.5 60.2 60.2 60.2h19.1v263.8c0 11.4 8.4 20.6 19.8 20.6s20.5-9.1 20.5-20.6z m89.2-595.5c-5.3-9.2-16.8-13-26.7-7.6-9.1 5.3-13 16.8-7.6 26.7 32.8 58 49.6 124.3 49.6 191.4 0 61.8-13.7 121.2-41.9 176.9-4.6 9.9-0.8 21.4 8.4 25.9 3 1.5 6.1 2.3 8.4 2.3 6.9 0 13.7-3.8 17.5-10.7 30.5-60.2 45.8-125.8 45.8-193.7 1.4-74-17.6-147.2-53.5-211.2zM679.7 864.7c-31.3 14.5-64.1 25.2-97.6 31.3-10.7 1.5-17.5 12.2-16 22.1 1.5 9.1 9.9 16 19.1 16h3.8c37.4-6.9 73.2-18.3 107.5-34.3 9.9-4.6 13.7-16 9.1-25.9-4.5-9.2-16-13.8-25.9-9.2z m-3.8-147.2c-32 25.2-70.2 42.7-110.6 51.1-10.7 2.3-17.5 12.2-15.3 22.9 1.5 9.2 9.9 15.3 19.1 15.3 2.3 0.8 3.1 0.8 4.6 0 45.8-9.2 89.2-29.7 126.6-58.7 8.4-6.9 9.9-19.1 3.1-27.5-6.9-8.4-19.1-10-27.5-3.1z" p-id="2543"></path></svg>