<?xml version="1.0" standalone="no"?><!DOCTYPE svg PUBLIC "-//W3C//DTD SVG 1.1//EN" "http://www.w3.org/Graphics/SVG/1.1/DTD/svg11.dtd"><svg t="1625125534963" class="icon" viewBox="0 0 1024 1024" version="1.1" xmlns="http://www.w3.org/2000/svg" p-id="5971" xmlns:xlink="http://www.w3.org/1999/xlink" width="200" height="200"><defs><style type="text/css"></style></defs><path d="M921.492501 678.725055L599.534493 279.59848c0.409518-6.065987 0.921416-12.080784 0.921416-18.274745 0-144.09918-117.224555-261.34933-261.374925-261.34933-144.09918 0-261.34933 117.224555-261.34933 261.323735 0 144.124775 117.224555 261.374925 261.34933 261.374925 6.168366 0 12.234353-0.511898 18.274745-0.89582l399.10098 321.932413a29.126975 29.126975 0 0 0 38.827434-2.073185l22.779444-22.779444c0.025595 8.779044-1.10058 18.069986-4.453509 27.156168-7.473705 20.219956-25.108578 36.344731-52.392721 47.785643-32.147171 13.539692-82.108378-9.905219-139.978405-37.010198-106.55149-49.961208-252.442312-118.376325-408.571086 3.967207a29.10138 29.10138 0 0 0 35.884024 45.814837c127.974405-100.331934 244.840632-45.482104 348.013597 2.892221 50.54989 23.70086 99.026595 46.429114 143.689662 46.429115a110.569886 110.569886 0 0 0 43.511298-8.471906c42.717856-17.967606 71.102579-45.302939 84.386322-81.263747 13.923615-37.573285 7.012997-74.941812 0.05119-97.465307l51.189762-51.189762c10.493901-10.493901 11.415317-27.232953 2.047591-38.776245zM135.908818 261.323735c0-112.054389 91.168966-203.19776 203.223356-203.19776 112.028794 0 203.172166 91.143371 203.172165 203.19776 0 112.028794-91.143371 203.223355-203.19776 203.223356-112.028794 0-203.19776-91.194561-203.197761-203.223356z m636.74945 520.70226L430.403519 505.959608a262.424315 262.424315 0 0 0 153.313338-153.313337l276.091981 342.254749-41.207758 41.207758a28.845431 28.845431 0 0 0-9.086183 9.111778l-36.856629 36.856629zM597.512498 482.156369a29.075785 29.075785 0 0 0-41.130974 41.130974l63.014597 63.014597a29.075785 29.075785 0 0 0 41.105379-41.130974l-62.989002-63.014597z" p-id="5972" fill="#333333"></path></svg>