<?xml version="1.0" standalone="no"?><!DOCTYPE svg PUBLIC "-//W3C//DTD SVG 1.1//EN" "http://www.w3.org/Graphics/SVG/1.1/DTD/svg11.dtd"><svg t="1625126225925" class="icon" viewBox="0 0 1024 1024" version="1.1" xmlns="http://www.w3.org/2000/svg" p-id="12810" xmlns:xlink="http://www.w3.org/1999/xlink" width="200" height="200"><defs><style type="text/css"></style></defs><path d="M875.32 311.847c0-14.709-11.913-26.641-26.623-26.641h-110.03C706.929 156.447 617.119 63.262 511.357 63.262c-105.782 0-195.592 93.185-227.33 221.945h-110.03c-14.71 0-26.622 11.932-26.622 26.641 0 14.689 11.912 26.623 26.621 26.623h100.687c-1.803 15.973-3.025 32.194-3.025 48.83 0 50.51 8.846 98.179 24.156 140.836-76.052 18.148-132.818 86.494-132.818 167.997v237.13c0 14.71 11.912 26.642 26.621 26.642h643.46c14.71 0 26.642-11.933 26.642-26.643v-237.13c0-81.502-56.786-149.848-132.839-167.996 15.31-42.657 24.157-90.328 24.157-140.836 0-16.636-1.223-32.857-3.026-48.83h100.687c14.709-0.001 26.621-11.934 26.621-26.624zM697.772 387.3c0 49.596-9.366 95.962-25.463 135.968-2.817 6.982-6.05 13.528-9.239 20.116-21.465-68.864-77.836-113.2-151.713-113.2-73.9 0-130.271 44.336-151.734 113.2-3.19-6.588-6.422-13.134-9.24-20.116-16.075-40.006-25.46-86.372-25.46-135.968 0-16.697 1.201-32.96 3.19-48.83h366.469c2.009 15.87 3.19 32.133 3.19 48.83z m-78.416 220.453c0 60.204-66.378 149.308-108 197.187-41.621-47.879-108.02-136.983-108.02-197.187 0-75.494 42.409-124.283 108.02-124.283 65.612 0 108 48.79 108 124.283z m-108-491.227c77.918 0 144.732 69.858 172.556 168.68H338.78c27.825-98.822 94.638-168.68 172.577-168.68z m295.098 579.608v210.508H216.26V696.134c0-59.874 44.253-109.45 101.743-118.11 9.882 18.23 21.152 34.93 33.562 49.991 14.233 101.371 126.997 220.868 140.63 234.976a26.616 26.616 0 0 0 19.163 8.141c7.23 0 14.129-2.94 19.143-8.141 13.631-14.108 126.416-133.626 140.65-234.996 12.386-15.04 23.68-31.74 33.54-49.97 57.49 8.659 101.764 58.235 101.764 118.109z" p-id="12811" fill="#333333"></path><path d="M392.026 430.661c16.346 0 29.605-13.24 29.605-29.605 0-16.326-13.26-29.585-29.605-29.585-16.346 0-29.585 13.26-29.585 29.585 0 16.367 13.239 29.605 29.585 29.605z m238.642 0c16.348 0 29.607-13.24 29.607-29.605 0-16.326-13.26-29.585-29.607-29.585-16.324 0-29.584 13.26-29.584 29.585 0 16.367 13.26 29.605 29.584 29.605zM484.715 573.735v11.809c0 14.709 11.912 26.643 26.643 26.643 14.709 0 26.622-11.934 26.622-26.643v-11.809c0-14.709-11.913-26.642-26.622-26.642-14.732 0-26.643 11.933-26.643 26.642z" p-id="12812" fill="#333333"></path></svg>