<?xml version="1.0" standalone="no"?><!DOCTYPE svg PUBLIC "-//W3C//DTD SVG 1.1//EN" "http://www.w3.org/Graphics/SVG/1.1/DTD/svg11.dtd"><svg t="1625130516113" class="icon" viewBox="0 0 1024 1024" version="1.1" xmlns="http://www.w3.org/2000/svg" p-id="25452" xmlns:xlink="http://www.w3.org/1999/xlink" width="200" height="200"><defs><style type="text/css"></style></defs><path d="M512 83.2c-247.04 0-448 200.96-448 448 0 246.976 200.96 448 448 448 246.976 0 448-201.024 448-448 0-247.04-201.024-448-448-448z m0 64c212.032 0 384 172.032 384 384 0 85.632-28.352 164.352-75.712 228.224-46.592-73.152-117.824-128.896-202.496-154.176 49.536-33.92 82.176-90.816 82.176-155.264 0-103.68-84.288-188.032-188.032-188.032-103.68 0-188.032 84.352-188.032 188.032 0 65.024 33.216 122.368 83.52 156.096-84.608 26.048-155.712 82.432-201.664 156.16C157.184 697.92 128 618.048 128 531.2c0-212.032 171.968-384 384-384zM388.032 449.984c0-68.352 55.616-124.032 124.032-124.032s124.032 55.616 124.032 124.032S580.352 574.016 512 574.016 388.032 518.4 388.032 449.984zM251.008 812.288c50.56-93.952 149.056-158.336 262.976-158.336 112.96 0 210.752 63.168 261.888 155.712C707.008 874.944 614.336 915.2 512 915.2c-100.928 0-192.448-39.232-260.992-102.912z" fill="#333333" p-id="25453"></path></svg>