<?xml version="1.0" standalone="no"?><!DOCTYPE svg PUBLIC "-//W3C//DTD SVG 1.1//EN" "http://www.w3.org/Graphics/SVG/1.1/DTD/svg11.dtd"><svg t="1625194205873" class="icon" viewBox="0 0 1024 1024" version="1.1" xmlns="http://www.w3.org/2000/svg" p-id="13677" xmlns:xlink="http://www.w3.org/1999/xlink" width="128" height="128"><defs><style type="text/css"></style></defs><path d="M641.975 467.009c-7.699-6.999-19.597-6.399-26.595 1.3L512.9 581.486 409.12 467.01c-6.999-7.699-18.896-8.299-26.595-1.3-7.698 6.999-8.298 18.896-1.3 26.595l89.683 99.08h-75.785c-10.398 0-18.797 8.399-18.797 18.797s8.399 18.796 18.797 18.796h98.28v50.69h-98.28c-10.398 0-18.797 8.399-18.797 18.797s8.399 18.796 18.797 18.796h98.28v82.684c0 10.398 8.399 18.796 18.797 18.796s18.796-8.398 18.796-18.796V717.26h97.981c10.398 0 18.796-8.398 18.796-18.796s-8.398-18.797-18.796-18.797h-97.88v-50.69h97.88c10.398 0 18.796-8.398 18.796-18.796s-8.398-18.797-18.796-18.797h-74.185l88.582-97.78c6.899-7.699 6.3-19.697-1.4-26.595z" p-id="13678"></path><path d="M730.657 321.037c-7.898-3.799-8.798-14.597-1.8-19.896 7.7-5.799 15.098-12.297 22.196-19.396 64.888-64.887 76.785-158.37 26.395-208.76-20.996-20.995-49.49-31.093-80.284-31.093-19.196 0-39.193 3.9-58.989 11.598C606.382 20.496 561.79 0 512.3 0c-47.59 0-90.682 18.996-122.276 49.69-17.197-5.799-34.493-8.798-51.09-8.798-30.794 0-59.189 10.098-80.185 31.094-50.39 50.39-38.492 143.772 26.395 208.76 6 5.998 12.298 11.597 18.797 16.596 6.998 5.499 5.998 16.297-2 19.996C126.675 397.322 4.799 573.988 4.799 779.148v82.984c0 89.282 72.386 161.668 161.668 161.668h691.665c89.283 0 161.669-72.386 161.669-161.668v-82.984c0-202.06-118.177-376.527-289.144-458.11z m225.156 541.095c0 53.89-43.791 97.68-97.68 97.68H166.466c-53.889 0-97.68-43.79-97.68-97.68v-82.984c0-173.166 101.88-331.635 259.649-403.621 24.195-10.998 40.492-33.394 43.591-59.689 3.2-26.594-7.598-52.29-28.594-68.786-4.6-3.6-8.898-7.499-12.998-11.498-42.591-42.592-48.09-96.481-26.394-118.277 10.198-10.198 24.695-12.397 34.993-12.397 9.698 0 19.996 1.8 30.594 5.398l36.993 12.498 27.994-27.195c20.996-20.396 48.59-31.593 77.685-31.593 30.394 0 58.788 12.097 80.084 33.993l29.595 30.594 39.592-15.497c12.097-4.7 24.495-7.199 35.693-7.199 10.298 0 24.795 2.2 34.993 12.398 13.597 13.597 13.197 34.393 11.798 45.591-3.2 24.995-17.097 51.49-38.193 72.586a153.399 153.399 0 0 1-15.597 13.597c-21.296 16.097-32.493 41.592-29.794 68.187 2.7 26.395 18.596 48.99 42.592 60.488 153.47 73.286 252.65 230.455 252.65 400.422v82.984z" p-id="13679"></path></svg>