<?xml version="1.0" standalone="no"?><!DOCTYPE svg PUBLIC "-//W3C//DTD SVG 1.1//EN" "http://www.w3.org/Graphics/SVG/1.1/DTD/svg11.dtd"><svg t="1625194010727" class="icon" viewBox="0 0 1024 1024" version="1.1" xmlns="http://www.w3.org/2000/svg" p-id="11945" xmlns:xlink="http://www.w3.org/1999/xlink" width="128" height="128"><defs><style type="text/css"></style></defs><path d="M153.525 864.211a35.88 35.88 0 0 0 27.039 12.259c1.455 0 2.91-0.113 4.422-0.282a35.997 35.997 0 0 0 27.6-19.225l176.061-342.328 157.362 153.882c7.726 7.501 18.306 11.224 29.11 10.047a35.937 35.937 0 0 0 26.2-16.119l205.955-315.491 34.12 25.354c14.583 10.829 30.817 16.538 46.968 16.538 32.777 0 59.48-22.835 67.99-58.15l60.852-252.026c7.191-29.718-0.84-48.049-8.845-58.206-17.019-21.632-48.928-25.101-79.774-5.905L711.517 149.164c-22.869 14.16-36.527 36.014-37.536 59.941-1.006 23.927 10.804 46.818 32.358 62.88l43.049 31.959-184.403 282.5-160.86-157.328a35.952 35.952 0 0 0-30.93-9.767c-11.252 1.82-20.993 8.9-26.227 19.03L172.726 777.042l-96.791-110.23V234.374c0-44.101 35.885-79.978 79.998-79.978h474.692c19.874 0 35.967-16.119 35.967-35.96 0-19.869-16.093-35.988-35.967-35.988H155.933C72.156 82.447 4 150.617 4 234.372v637.702C4 955.858 72.156 1024 155.933 1024h652.123c83.777 0 151.932-68.142 151.932-151.926V464.32c0-19.842-16.094-35.961-35.968-35.961-19.873 0-35.968 16.12-35.968 35.96v407.756c0 44.104-35.884 80.007-79.997 80.007H155.933c-44.113 0-79.998-35.905-79.998-80.007v-96.208l77.59 88.343z m593.4-652.057c0.588-0.53 1.428-1.174 2.52-1.846L939.95 92.187l-53.518 221.578c-0.197 0.729-0.39 1.344-0.561 1.876-0.446-0.28-0.95-0.644-1.54-1.092L749.279 214.226c-1.008-0.783-1.794-1.485-2.354-2.072z" p-id="11946" fill="#333333"></path></svg>