<?xml version="1.0" standalone="no"?><!DOCTYPE svg PUBLIC "-//W3C//DTD SVG 1.1//EN" "http://www.w3.org/Graphics/SVG/1.1/DTD/svg11.dtd"><svg t="1625199996870" class="icon" viewBox="0 0 1024 1024" version="1.1" xmlns="http://www.w3.org/2000/svg" p-id="16067" xmlns:xlink="http://www.w3.org/1999/xlink" width="128" height="128"><defs><style type="text/css"></style></defs><path d="M887.915282 334.447663c11.27739 0 20.411257-9.161173 20.411257-20.469282 0-11.301283-9.133867-20.469282-20.411257-20.469283-11.26715 0-20.411257 9.167999-20.411257 20.469283 0 11.308109 9.144107 20.469282 20.411257 20.469282z m0 20.469282c-22.544541 0-40.822514-18.322346-40.822514-40.938564 0-22.609392 18.27456-40.938565 40.822514-40.938565 22.544541 0 40.822514 18.329172 40.822514 40.938565 0 22.616219-18.277974 40.938565-40.822514 40.938564zM44.268194 416.328206c11.26715 0 20.411257-9.161173 20.411257-20.469283 0-11.301283-9.144107-20.469282-20.411257-20.469282-11.27739 0-20.411257 9.167999-20.411257 20.469282 0 11.308109 9.133867 20.469282 20.411257 20.469283z m0 20.469282C21.716827 436.817968 3.43544 418.492209 3.4252 395.879403c-0.013653-22.609392 18.250667-40.945391 40.802035-40.959044h0.040959c22.544541 0 40.822514 18.329172 40.822514 40.938564 0 22.612806-18.277974 40.938565-40.822514 40.938565zM302.801681 518.678031c0-7.529638 6.068765-13.646188 13.577923-13.646188h95.30487a13.58475 13.58475 0 0 1 13.58475 13.646188c0 7.533051-6.068765 13.646188-13.58475 13.646188H316.379604a13.567683 13.567683 0 0 1-13.577923-13.560857v-0.085331z m0-68.230941c0-7.536464 6.058525-13.649602 13.516485-13.649602h217.902116c7.457959 0 13.516485 6.061939 13.516484 13.646188 0 7.536464-6.058525 13.646188-13.516484 13.646189H316.318166a13.540377 13.540377 0 0 1-13.516485-13.57451v-0.068265z m0-68.234355a13.629122 13.629122 0 0 1 13.59499-13.646188h149.69848a13.629122 13.629122 0 0 1 13.605229 13.646188 13.625709 13.625709 0 0 1-13.605229 13.646188H316.410324a13.58475 13.58475 0 0 1-13.608643-13.560857v-0.085331z m143.366895 321.187172c26.575593-26.650685 26.575593-69.852237 0-96.506335-26.57218-26.647272-69.654268-26.647272-96.226448 0-26.575593 26.654098-26.575593 69.85565 0 96.509749 26.57218 26.647272 69.654268 26.647272 96.226448 0zM17.054322 791.622275c0-7.533051 6.15751-13.653015 13.560857-13.653014H112.342125a13.58475 13.58475 0 0 1 13.567684 13.653014c0 7.529638-6.164336 13.646188-13.567684 13.646189H30.615179a13.577923 13.577923 0 0 1-13.560857-13.58475v-0.061439zM176.934538 208.222128h20.274727c5.720613 0 10.342159 4.543041 10.342159 10.229521 0 5.645522-4.621545 10.239761-10.342159 10.239762h-20.274727v20.329339c0 5.734266-4.525974 10.372878-10.205628 10.372877a10.287547 10.287547 0 0 1-10.205629-10.372877v-20.329339h-20.274727a10.263654 10.263654 0 0 1-10.338745-10.181736v-0.058026c0-5.648935 4.624959-10.229521 10.342158-10.229521h20.274727V187.882549c0-5.734266 4.529388-10.369465 10.205629-10.369464 5.631869 0 10.202215 4.638612 10.202215 10.369464v20.339579z m479.661128 501.509365h40.941978c14.984184-0.068265 27.087581-12.267234 27.094408-27.288963V286.686004c0-15.120714-12.13753-27.292377-27.094408-27.292377h-326.832694c-14.977357 0.085331-27.073928 12.27406-27.080755 27.292377v13.646188h258.485702c30.026393-0.068265 54.41409 24.288713 54.485769 54.397024v355.00569z m-97.595163 68.234354h43.273231c14.970531 0 27.108061-12.144357 27.10806-27.357228V354.206989c0-14.738429-11.762072-26.58242-26.264987-26.58242H274.638925c-14.509741 0-26.264987 11.902016-26.264987 26.58242v396.40163c0 15.103648 12.250167 27.357228 27.090994 27.357228h206.563287l-6.99717-7.027889a27.288963 27.288963 0 0 1-7.072261-26.374211l-12.847487-12.895273c-42.211708 31.511158-101.902689 22.739096-133.321689-19.598902-28.183236-37.972447-24.397937-90.925665 8.908592-124.474536 37.1362-37.371715 97.441566-37.477526 134.70747-0.238928 33.634202 33.610309 37.446806 86.932158 8.946138 125.010417l12.857726 12.898685a27.084168 27.084168 0 0 1 26.305947 7.079089l45.485018 45.621548z m-49.741346 27.299203H166.691364a13.577923 13.577923 0 0 1-13.567684-13.584749v-0.061439c0-7.533051 6.160923-13.653015 13.567684-13.653015H228.392751a54.417504 54.417504 0 0 1-7.236098-27.224111V354.852093c0.017066-30.125377 24.380871-54.533554 54.41409-54.519901h40.836168v-13.714453c0.017066-30.121964 24.380871-54.533554 54.41409-54.519901h326.535741c30.026393-0.064852 54.417504 24.288713 54.485768 54.397024v396.012519c0 9.925742-2.645272 19.216618-7.253164 27.227525h75.272484a13.598403 13.598403 0 0 1 13.622295 13.646188 13.608642 13.608642 0 0 1-13.608642 13.646189h-163.28323v13.714453c0 9.925742-2.645272 19.216618-7.253164 27.224111h7.294123a13.58475 13.58475 0 0 1 13.56427 13.653015c0 7.529638-6.164336 13.646188-13.56427 13.646188H585.043629a27.278723 27.278723 0 0 1-4.174409 33.228025 27.094408 27.094408 0 0 1-38.399104 0.085332l-0.085332-0.085332-33.12904-33.228025z m494.31764-225.179172v-13.779305a6.70363 6.70363 0 0 0-6.717284-6.689977h-0.085331c-3.699967 0-6.727523 2.972944-6.802615 6.689977v13.779305h-13.741759a6.707044 6.707044 0 0 0-6.669498 6.748003v0.075091c0 3.662421 2.993423 6.826507 6.669498 6.826508h13.741759v13.789544c0 3.744339 3.051449 6.679737 6.802615 6.679738a6.806028 6.806028 0 0 0 6.802615-6.679738v-13.789544h13.745172c3.740926 0 6.666084-3.051449 6.666085-6.826508a6.816268 6.816268 0 0 0-6.666085-6.823094h-13.745172zM105.498552 634.674044h13.741759a6.819681 6.819681 0 0 1 6.669498 6.823094c0 3.771645-2.925158 6.823094-6.669498 6.823095h-13.741759v13.789544a6.809441 6.809441 0 0 1-6.802615 6.679738 6.696804 6.696804 0 0 1-6.802615-6.601233v-13.868049h-13.745172a6.799201 6.799201 0 0 1-6.666085-6.826508c0-3.757992 2.925158-6.819681 6.666085-6.819681h13.745172V620.894739a6.816268 6.816268 0 0 1 6.802615-6.689977c3.751166 0 6.802615 2.935398 6.802615 6.689977v13.779305z" p-id="16068"></path></svg>