<?xml version="1.0" standalone="no"?><!DOCTYPE svg PUBLIC "-//W3C//DTD SVG 1.1//EN" "http://www.w3.org/Graphics/SVG/1.1/DTD/svg11.dtd"><svg t="1625193923221" class="icon" viewBox="0 0 1070 1024" version="1.1" xmlns="http://www.w3.org/2000/svg" p-id="11052" xmlns:xlink="http://www.w3.org/1999/xlink" width="133.75" height="128"><defs><style type="text/css"></style></defs><path d="M798.813091 46.545455c49.105455 0 89.646545 37.282909 95.744 85.550545h10.705454c64.884364 0 117.666909 52.968727 118.69091 118.784l0.046545 1.954909v603.834182c0 66.048-52.130909 119.714909-116.829091 120.785454H165.329455C100.398545 977.454545 47.569455 924.439273 46.545455 858.670545V252.834909c0-66.001455 52.130909-119.621818 116.82909-120.738909h34.909091c6.004364-47.755636 45.754182-84.712727 94.114909-85.550545h506.414546z m160.861091 456.145454H110.871273v353.978182c0 30.254545 23.924364 54.877091 53.527272 55.389091h740.817455c29.789091 0 53.992727-24.296727 54.458182-54.458182V502.690909zM197.492364 197.492364h-32.162909c-29.789091 0-53.992727 24.296727-54.458182 54.458181v185.344h86.621091V197.492364z m601.320727-85.550546H293.981091a32.442182 32.442182 0 0 0-32.116364 31.976727v293.376h569.111273V144.663273c0-17.780364-13.963636-32.302545-31.418182-32.674909h-0.744727z m106.402909 85.550546h-9.914182v239.802181h64.372364V252.834909a54.923636 54.923636 0 0 0-53.527273-55.342545h-0.930909z m-421.422545-46.08l53.899636 54.830545 53.480727-54.318545a18.245818 18.245818 0 0 1 25.786182-0.279273l0.279273 0.279273a18.944 18.944 0 0 1 0.279272 26.205091l-0.279272 0.279272-50.967273 51.805091h46.964364c10.938182 0 19.781818 9.029818 19.781818 20.107637 0 11.170909-8.843636 20.154182-19.781818 20.154181h-53.201455v25.134546h70.516364c10.938182 0 19.781818 9.029818 19.781818 20.154182s-8.843636 20.107636-19.781818 20.107636h-70.516364v46.545455a20.014545 20.014545 0 0 1-19.456 20.154181h-0.372364a19.968 19.968 0 0 1-19.781818-19.781818V335.872H447.394909a19.968 19.968 0 0 1-19.781818-20.107636c0-11.124364 8.843636-20.154182 19.781818-20.154182h73.029818v-25.134546h-50.734545a19.968 19.968 0 0 1-19.781818-20.154181c0-11.077818 8.843636-20.107636 19.781818-20.107637h39.470545L457.681455 177.943273a18.944 18.944 0 0 1 0-26.530909 18.245818 18.245818 0 0 1 26.065454 0z" fill="#333333" p-id="11053"></path></svg>