<?xml version="1.0" standalone="no"?><!DOCTYPE svg PUBLIC "-//W3C//DTD SVG 1.1//EN" "http://www.w3.org/Graphics/SVG/1.1/DTD/svg11.dtd"><svg t="1625125625128" class="icon" viewBox="0 0 1024 1024" version="1.1" xmlns="http://www.w3.org/2000/svg" p-id="6905" xmlns:xlink="http://www.w3.org/1999/xlink" width="200" height="200"><defs><style type="text/css"></style></defs><path d="M939.008 132.096c-1.024-18.432-16.384-33.792-34.816-34.816-65.536-7.168-130.048 15.36-178.176 62.464l-133.12 133.12-276.48-120.832c-21.504-10.24-48.128-5.12-64.512 11.264l-48.128 48.128c-3.072 3.072-5.12 5.12-7.168 9.216l-1.024 1.024c-9.216 13.312-11.264 29.696-7.168 44.032 3.072 14.336 12.288 27.648 26.624 36.864l215.04 135.168L293.888 593.92l-82.944-39.936c-6.144-2.048-12.288-3.072-17.408-3.072-12.288 0-22.528 4.096-30.72 11.264l-45.056 45.056c-9.216 9.216-12.288 18.432-11.264 29.696 1.024 11.264 7.168 21.504 15.36 28.672l135.168 102.4c3.072 2.048 6.144 4.096 8.192 8.192L366.592 911.36c7.168 8.192 17.408 14.336 28.672 15.36h3.072c9.216 0 19.456-4.096 26.624-11.264l45.056-45.056c11.264-11.264 14.336-29.696 7.168-44.032l-39.936-82.944L573.44 607.232l135.168 214.016c2.048 2.048 3.072 4.096 4.096 6.144 1.024 2.048 2.048 3.072 3.072 4.096 11.264 11.264 25.6 17.408 40.96 17.408s29.696-6.144 40.96-17.408l48.128-48.128c17.408-17.408 22.528-41.984 11.264-64.512l-120.832-276.48L871.424 307.2c49.152-41.984 73.728-106.496 67.584-175.104zM233.472 274.432l55.296-55.296 262.144 114.688-86.016 86.016-231.424-145.408z m582.656 471.04l-55.296 55.296-145.408-229.376 86.016-86.016 114.688 260.096z m68.608-589.824c0 44.032-17.408 86.016-48.128 116.736l-460.8 461.824 51.2 106.496-24.576 24.576-91.136-122.88c-5.12-7.168-10.24-13.312-17.408-17.408l-122.88-91.136 24.576-24.576 106.496 51.2L467.968 491.52l293.888-293.888c31.744-31.744 74.752-49.152 118.784-48.128h5.12v6.144z" fill="#333333" p-id="6906"></path></svg>